# xmcd CD database file generated by Grip 2.96
# 
# Track frame offsets:
#       150
#       13335
#       27284
#       39895
#       51550
#       64959
#       79507
#       92355
#       106158
#       118254
#       130764
#       141880
#       155427
#       168636
#       179404
#       190672
#       204282
#       216643
#       231318
#       244931
#       258927
#       272372
#       285622
#       298200
#       310058
# 
# Disc length: 4282 seconds
# 
# Revision: 0
# Processed by: cddbd v1.4PL0 Copyright (c) Steve Scherf et al.
# Submitted via: Grip 2.96
# 
DISCID=7010b819
DTITLE=Billie Holiday - The Best of Billie Holiday Volume 3
DYEAR=1900
DGENRE=
TTITLE0=Nice Work If You Can Get It
TTITLE1=Love Me or Leave Me
TTITLE2=Night and Day
TTITLE3=Falling In Love Again
TTITLE4=That's Life I Guess
TTITLE5=I Can't Give You Anything But Love
TTITLE6=If My Heart Could Only Talk
TTITLE7=This Year's Kisses
TTITLE8=Why Was I Born
TTITLE9=I Must Have That Man
TTITLE10=Sentimental and Melancholy\
TTITLE11=(This is) My Last Affair
TTITLE12=Carelessly
TTITLE13=How Could You
TTITLE14=Let's Call the Whole Thing Off
TTITLE15=They Can't Take That Away From Me
TTITLE16=I Don't Know if I'm Comin' or Goin'
TTITLE17=Yours and Mine
TTITLE18=I'll Get By (As Long As I Have You)
TTITLE19=Mean to Me
TTITLE20=Foolin' Myself
TTITLE21=I'll Never Be the Same
TTITLE22=The Way You Look Tonight
TTITLE23=I Can't Believe That Your in Love With Me
TTITLE24=He's Funny That Way
EXTD=
EXTT0=
EXTT1=
EXTT2=
EXTT3=
EXTT4=
EXTT5=
EXTT6=
EXTT7=
EXTT8=
EXTT9=
EXTT10=
EXTT11=
EXTT12=
EXTT13=
EXTT14=
EXTT15=
EXTT16=
EXTT17=
EXTT18=
EXTT19=
EXTT20=
EXTT21=
EXTT22=
EXTT23=
EXTT24=
PLAYORDER=
